<svg id="svg" version="1.1" xmlns="http://www.w3.org/2000/svg" xmlns:xlink="http://www.w3.org/1999/xlink" width="400" height="143.36917562724014" viewBox="0, 0, 400,143.36917562724014"><g id="svgg"><path id="path0" d="M311.202 1.020 C 311.098 1.581,310.871 2.312,310.699 2.645 C 310.312 3.389,310.061 4.481,309.850 6.336 C 309.761 7.117,309.534 8.114,309.346 8.553 C 308.856 9.696,308.668 11.002,308.489 14.500 C 308.402 16.196,308.284 17.921,308.226 18.333 C 308.128 19.037,308.337 22.723,308.648 25.768 C 308.738 26.652,308.936 27.431,309.219 28.018 C 309.457 28.512,309.807 29.704,309.996 30.667 C 310.249 31.953,310.430 32.484,310.676 32.671 C 311.006 32.923,311.500 34.246,311.500 34.879 C 311.500 35.059,311.723 35.460,311.996 35.770 C 312.268 36.081,312.614 36.766,312.764 37.292 C 312.914 37.819,313.217 38.443,313.438 38.679 C 313.866 39.136,314.500 40.279,314.500 40.593 C 314.500 40.697,314.658 40.925,314.852 41.099 C 315.045 41.274,315.426 41.857,315.697 42.395 C 315.969 42.933,316.371 43.553,316.590 43.772 C 316.809 43.991,317.068 44.469,317.167 44.834 C 317.291 45.297,317.491 45.573,317.826 45.746 C 318.117 45.897,318.380 46.219,318.495 46.567 C 318.598 46.882,318.853 47.250,319.059 47.386 C 319.266 47.521,319.682 48.095,319.983 48.660 C 320.285 49.226,320.634 49.728,320.759 49.776 C 320.884 49.824,321.174 50.184,321.403 50.575 C 321.632 50.966,322.014 51.413,322.251 51.569 C 322.488 51.724,322.770 52.053,322.878 52.300 C 323.053 52.701,324.030 53.932,325.142 55.153 C 325.357 55.390,325.647 55.803,325.786 56.071 C 325.926 56.340,326.274 56.807,326.561 57.109 C 327.256 57.840,328.297 59.027,329.316 60.250 C 329.774 60.800,330.326 61.438,330.541 61.667 C 330.756 61.896,331.154 62.383,331.425 62.750 C 331.695 63.117,332.075 63.545,332.269 63.703 C 332.463 63.860,332.719 64.235,332.838 64.536 C 333.044 65.057,333.280 65.344,334.810 66.937 C 335.173 67.315,335.587 67.840,335.730 68.104 C 335.874 68.368,336.293 68.918,336.662 69.327 C 337.031 69.736,337.333 70.130,337.333 70.202 C 337.333 70.274,337.587 70.614,337.898 70.958 C 338.208 71.302,338.580 71.866,338.723 72.211 C 338.867 72.556,339.104 72.884,339.250 72.940 C 339.395 72.995,339.672 73.351,339.864 73.729 C 340.057 74.107,340.469 74.715,340.780 75.079 C 341.091 75.443,341.390 75.931,341.444 76.162 C 341.498 76.394,341.748 76.808,341.999 77.083 C 342.251 77.358,342.666 77.958,342.922 78.417 C 343.178 78.875,343.560 79.439,343.771 79.669 C 343.981 79.899,344.268 80.413,344.408 80.809 C 344.548 81.206,344.850 81.754,345.080 82.026 C 345.309 82.299,345.614 82.924,345.757 83.415 C 345.899 83.906,346.233 84.581,346.499 84.915 C 346.796 85.289,347.052 85.886,347.167 86.469 C 347.442 87.871,347.588 88.239,348.051 88.703 C 348.360 89.012,348.502 89.380,348.590 90.103 C 348.708 91.070,348.997 91.843,349.427 92.336 C 349.667 92.611,349.950 93.607,350.161 94.925 C 350.235 95.388,350.522 96.251,350.799 96.844 C 351.157 97.608,351.378 98.463,351.562 99.787 C 351.798 101.484,352.063 102.333,352.357 102.333 C 352.495 102.333,352.786 103.627,352.920 104.833 C 353.080 106.278,353.365 107.667,353.501 107.667 C 353.756 107.667,354.012 108.642,354.322 110.789 C 354.544 112.327,354.739 113.134,354.969 113.457 C 355.365 114.013,355.601 114.876,355.755 116.333 C 355.826 117.013,356.073 117.851,356.415 118.583 C 356.715 119.225,357.133 120.462,357.342 121.333 C 357.552 122.204,357.907 123.283,358.132 123.731 C 358.356 124.179,358.647 125.079,358.779 125.731 C 358.948 126.576,359.129 127.012,359.408 127.250 C 359.639 127.446,359.933 128.032,360.124 128.674 C 360.305 129.285,360.634 129.952,360.870 130.189 C 361.103 130.421,361.418 131.039,361.569 131.560 C 361.746 132.166,362.022 132.665,362.336 132.945 C 362.606 133.185,362.873 133.540,362.931 133.733 C 362.989 133.926,363.348 134.496,363.730 135.000 C 364.112 135.504,364.535 136.141,364.671 136.415 C 364.806 136.689,365.113 137.082,365.353 137.287 C 365.594 137.492,365.884 137.887,365.999 138.164 C 366.114 138.441,366.404 138.762,366.644 138.877 C 366.884 138.992,367.179 139.292,367.300 139.544 C 367.420 139.795,367.743 140.117,368.017 140.259 C 368.290 140.400,368.602 140.719,368.710 140.966 C 368.817 141.214,369.189 141.686,369.536 142.016 C 369.885 142.348,370.167 142.776,370.167 142.974 L 370.167 143.333 380.417 143.333 C 390.556 143.333,390.667 143.330,390.667 143.000 C 390.667 142.699,390.778 142.667,391.820 142.667 C 393.365 142.667,393.500 142.599,393.500 141.825 C 393.500 141.192,393.507 141.185,394.208 141.135 C 394.913 141.084,394.917 141.080,394.968 140.375 C 395.019 139.670,395.022 139.667,395.676 139.667 C 396.330 139.667,396.333 139.663,396.333 139.010 C 396.333 138.356,396.337 138.352,397.042 138.301 C 397.747 138.250,397.750 138.247,397.801 137.542 C 397.851 136.854,397.870 136.833,398.430 136.833 C 399.140 136.833,399.333 136.439,399.333 134.989 C 399.333 134.111,399.371 134.000,399.667 134.000 C 399.999 134.000,400.000 133.889,400.000 71.667 C 400.000 9.873,399.997 9.333,399.673 9.333 C 399.379 9.333,399.342 9.196,399.298 7.958 L 399.250 6.583 398.542 6.532 L 397.833 6.481 397.833 5.337 C 397.833 3.799,397.766 3.667,396.982 3.667 C 396.337 3.667,396.162 3.344,396.318 2.446 C 396.331 2.370,396.265 2.356,396.171 2.414 C 396.077 2.472,396.000 2.440,396.000 2.343 C 396.000 2.246,395.944 2.176,395.875 2.186 C 395.246 2.286,395.038 2.138,394.940 1.523 C 394.830 0.835,394.395 0.667,392.727 0.667 C 392.278 0.667,392.167 0.601,392.167 0.333 C 392.167 0.001,392.056 0.000,351.779 0.000 L 311.392 0.000 311.202 1.020 " stroke="none" fill="#fbbb64" fill-rule="evenodd"></path><path id="path1" d="M286.166 0.458 C 286.166 0.710,286.025 1.147,285.853 1.429 C 285.681 1.710,285.453 2.498,285.345 3.179 C 284.997 5.379,284.806 6.243,284.593 6.583 C 284.178 7.246,284.010 8.127,283.833 10.583 C 283.662 12.954,283.331 15.618,282.989 17.383 C 282.790 18.407,282.789 20.421,282.987 21.450 C 283.072 21.890,283.301 23.300,283.497 24.583 C 283.693 25.867,283.928 27.398,284.020 27.987 C 284.112 28.576,284.368 29.367,284.590 29.746 C 284.812 30.124,285.102 31.005,285.236 31.703 C 285.380 32.457,285.664 33.266,285.935 33.695 C 286.186 34.092,286.563 34.889,286.773 35.465 C 286.983 36.042,287.295 36.717,287.468 36.965 C 287.641 37.214,287.977 37.847,288.214 38.373 C 288.452 38.898,288.826 39.573,289.046 39.873 C 289.265 40.172,289.576 40.773,289.736 41.209 C 289.897 41.644,290.170 42.100,290.344 42.222 C 290.518 42.344,290.809 42.779,290.990 43.190 C 291.172 43.600,291.586 44.209,291.910 44.543 C 292.235 44.877,292.500 45.261,292.500 45.397 C 292.500 45.532,292.599 45.742,292.720 45.863 C 293.026 46.170,294.167 47.806,294.167 47.938 C 294.167 47.998,294.433 48.355,294.758 48.732 C 296.283 50.498,296.833 51.191,296.833 51.341 C 296.833 51.431,297.090 51.785,297.403 52.127 C 298.258 53.062,299.431 54.559,299.666 55.014 C 299.881 55.429,300.187 55.781,301.649 57.299 C 302.117 57.785,302.614 58.403,302.754 58.674 C 302.894 58.945,303.081 59.167,303.169 59.167 C 303.257 59.167,303.528 59.485,303.771 59.875 C 304.194 60.553,305.020 61.545,306.258 62.863 C 306.574 63.200,306.833 63.548,306.833 63.636 C 306.833 63.724,307.152 64.130,307.542 64.539 C 307.931 64.948,308.587 65.713,309.000 66.240 C 309.412 66.767,310.069 67.581,310.458 68.048 C 310.848 68.515,311.167 68.953,311.167 69.022 C 311.167 69.090,311.467 69.493,311.833 69.917 C 312.200 70.340,312.500 70.755,312.500 70.838 C 312.500 70.921,312.837 71.369,313.250 71.833 C 313.662 72.298,314.000 72.746,314.000 72.830 C 314.000 72.914,314.218 73.193,314.485 73.450 C 314.752 73.707,315.168 74.302,315.409 74.773 C 315.651 75.243,316.005 75.768,316.197 75.939 C 316.389 76.110,316.753 76.710,317.007 77.272 C 317.261 77.834,317.552 78.346,317.655 78.409 C 317.757 78.473,318.058 78.950,318.323 79.470 C 318.588 79.991,318.952 80.506,319.133 80.614 C 319.331 80.734,319.544 81.155,319.668 81.674 C 319.782 82.148,320.082 82.772,320.335 83.060 C 320.588 83.348,320.890 83.921,321.007 84.334 C 321.123 84.746,321.468 85.458,321.773 85.917 C 322.084 86.383,322.401 87.136,322.493 87.626 C 322.584 88.109,322.952 89.121,323.310 89.876 C 323.668 90.632,324.083 91.793,324.232 92.457 C 324.382 93.121,324.690 94.073,324.918 94.571 C 325.147 95.070,325.333 95.618,325.333 95.788 C 325.333 96.263,325.799 97.940,326.146 98.719 C 326.478 99.463,326.704 100.388,326.998 102.222 C 327.099 102.849,327.245 103.486,327.324 103.639 C 327.759 104.490,328.029 105.412,328.235 106.750 C 328.361 107.575,328.728 109.188,329.050 110.333 C 329.372 111.479,329.723 112.904,329.831 113.500 C 329.938 114.096,330.247 115.136,330.516 115.811 C 330.785 116.486,331.110 117.733,331.237 118.581 C 331.365 119.429,331.607 120.367,331.776 120.667 C 331.945 120.966,332.173 121.366,332.282 121.556 C 332.392 121.746,332.570 122.430,332.678 123.076 C 332.824 123.946,332.997 124.389,333.346 124.788 C 333.605 125.084,333.861 125.609,333.915 125.955 C 334.102 127.152,334.360 127.873,334.834 128.528 C 335.097 128.890,335.362 129.417,335.424 129.699 C 335.486 129.981,335.754 130.558,336.019 130.981 C 336.284 131.404,336.655 132.069,336.842 132.460 C 337.030 132.850,337.327 133.303,337.503 133.467 C 337.679 133.631,338.031 134.176,338.286 134.679 C 338.803 135.700,339.602 136.754,340.542 137.657 C 340.885 137.987,341.167 138.316,341.167 138.389 C 341.167 138.461,341.860 139.210,342.708 140.053 C 343.556 140.895,344.360 141.754,344.496 141.960 C 344.631 142.166,344.874 142.377,345.037 142.428 C 345.214 142.485,345.333 142.686,345.333 142.928 L 345.333 143.333 357.250 143.333 C 368.746 143.333,369.167 143.322,369.167 143.024 C 369.167 142.818,368.986 142.663,368.625 142.560 C 368.213 142.442,368.038 142.267,367.895 141.828 C 367.786 141.492,367.577 141.224,367.396 141.188 C 367.012 141.112,366.333 140.402,366.333 140.077 C 366.333 139.945,366.075 139.730,365.760 139.598 C 365.316 139.413,365.163 139.233,365.080 138.804 C 365.003 138.400,364.833 138.182,364.452 138.000 C 364.090 137.827,363.886 137.581,363.791 137.202 C 363.703 136.850,363.510 136.599,363.252 136.501 C 362.795 136.327,362.392 135.641,362.200 134.714 C 362.104 134.251,361.976 134.070,361.716 134.032 C 361.338 133.977,360.833 133.113,360.833 132.520 C 360.833 132.330,360.654 132.057,360.434 131.913 C 360.021 131.642,359.333 130.263,359.333 129.706 C 359.333 129.533,359.150 129.219,358.926 129.009 C 358.332 128.450,358.046 127.729,357.912 126.452 C 357.805 125.436,357.746 125.297,357.325 125.079 C 356.764 124.789,356.723 124.671,356.507 122.751 C 356.415 121.926,356.261 121.226,356.167 121.194 C 355.534 120.983,355.247 120.140,355.078 117.991 C 354.982 116.771,354.916 116.542,354.621 116.407 C 354.117 116.177,353.859 115.224,353.700 113.003 C 353.566 111.141,353.534 111.013,353.098 110.638 C 352.560 110.175,352.377 109.418,352.184 106.855 C 352.083 105.510,351.992 105.092,351.777 104.972 C 351.229 104.665,350.981 103.826,350.807 101.697 C 350.656 99.836,350.590 99.543,350.260 99.250 C 349.657 98.713,349.532 98.328,349.406 96.619 C 349.299 95.158,349.243 94.955,348.822 94.515 C 348.318 93.987,348.003 93.090,347.999 92.167 C 347.994 91.064,347.807 90.365,347.495 90.284 C 347.050 90.167,346.680 89.318,346.453 87.891 C 346.289 86.862,346.183 86.591,345.891 86.458 C 345.497 86.279,345.000 85.166,345.000 84.465 C 345.000 84.024,344.779 83.714,344.147 83.271 C 343.913 83.108,343.754 82.709,343.628 81.974 C 343.467 81.037,343.387 80.885,342.937 80.665 C 342.585 80.493,342.385 80.241,342.285 79.845 C 342.206 79.530,341.855 78.947,341.505 78.550 C 341.156 78.152,340.823 77.582,340.767 77.282 C 340.698 76.914,340.501 76.640,340.159 76.439 C 339.845 76.253,339.616 75.956,339.556 75.655 C 339.503 75.388,339.224 74.913,338.938 74.599 C 338.048 73.624,337.833 73.281,337.833 72.830 C 337.833 72.499,337.697 72.330,337.265 72.124 C 336.866 71.934,336.665 71.704,336.587 71.350 C 336.516 71.027,336.275 70.721,335.915 70.499 C 335.568 70.284,335.280 69.928,335.160 69.562 C 335.053 69.238,334.637 68.622,334.235 68.194 C 333.834 67.767,333.504 67.284,333.503 67.121 C 333.501 66.958,333.328 66.760,333.118 66.680 C 332.635 66.496,332.390 66.201,332.247 65.631 C 332.181 65.367,331.899 65.041,331.564 64.844 C 331.251 64.659,330.925 64.324,330.839 64.099 C 330.753 63.873,330.447 63.515,330.158 63.303 C 329.869 63.090,329.524 62.646,329.391 62.315 C 329.258 61.984,328.966 61.615,328.741 61.495 C 328.517 61.375,328.333 61.209,328.333 61.127 C 328.333 61.044,328.217 60.860,328.075 60.718 C 327.933 60.576,327.777 60.263,327.728 60.022 C 327.670 59.742,327.448 59.493,327.111 59.333 C 326.770 59.172,326.530 58.901,326.431 58.568 C 326.332 58.232,326.117 57.991,325.812 57.876 C 325.495 57.756,325.256 57.479,325.070 57.016 C 324.920 56.641,324.706 56.333,324.594 56.333 C 324.351 56.333,323.758 55.702,323.611 55.286 C 323.553 55.122,323.283 54.860,323.010 54.703 C 322.702 54.527,322.412 54.150,322.243 53.709 C 322.094 53.319,321.845 52.906,321.690 52.791 C 321.193 52.425,320.667 51.633,320.667 51.252 C 320.667 50.979,320.528 50.842,320.138 50.730 C 319.720 50.610,319.562 50.436,319.383 49.898 C 319.245 49.485,318.987 49.127,318.728 48.988 C 318.493 48.862,318.142 48.422,317.948 48.010 C 317.754 47.598,317.312 46.968,316.965 46.610 C 316.609 46.244,316.333 45.794,316.333 45.580 C 316.333 45.326,316.149 45.091,315.778 44.872 C 315.353 44.621,315.169 44.354,314.996 43.734 C 314.860 43.251,314.584 42.769,314.311 42.539 C 314.030 42.302,313.753 41.810,313.594 41.263 C 313.413 40.638,313.235 40.347,312.999 40.285 C 312.609 40.183,312.167 39.238,312.167 38.505 C 312.167 38.035,311.684 37.333,311.360 37.333 C 311.152 37.333,310.896 36.688,310.667 35.585 C 310.526 34.907,310.317 34.458,309.988 34.129 C 309.440 33.582,309.169 32.755,309.168 31.631 C 309.167 30.900,308.743 30.167,308.322 30.167 C 308.083 30.167,307.856 28.673,307.741 26.362 C 307.630 24.131,307.594 23.940,307.197 23.467 C 306.615 22.776,306.345 19.888,306.639 17.510 C 306.748 16.633,306.836 15.615,306.835 15.247 C 306.834 14.804,306.975 14.368,307.253 13.960 C 307.644 13.384,307.678 13.169,307.764 10.713 C 307.876 7.544,308.039 6.616,308.617 5.858 C 309.004 5.351,309.074 5.056,309.195 3.432 C 309.270 2.415,309.408 1.411,309.499 1.200 C 309.591 0.990,309.667 0.634,309.667 0.409 L 309.667 0.000 297.917 0.000 L 286.167 0.000 286.166 0.458 " stroke="none" fill="#6353b4" fill-rule="evenodd"></path><path id="path2" d="M310.500 0.407 C 310.500 0.631,310.357 1.062,310.181 1.365 C 310.006 1.669,309.784 2.404,309.689 3.000 C 309.593 3.596,309.434 4.571,309.336 5.167 C 309.237 5.763,308.963 6.737,308.726 7.333 C 308.383 8.194,308.246 8.981,308.058 11.167 C 307.928 12.679,307.742 14.742,307.644 15.750 C 307.313 19.158,307.296 20.675,307.570 22.249 C 307.713 23.074,307.907 24.678,308.001 25.813 C 308.131 27.391,308.273 28.116,308.604 28.896 C 308.842 29.458,309.207 30.554,309.415 31.333 C 309.850 32.964,309.987 33.333,310.159 33.333 C 310.328 33.333,310.787 34.420,311.010 35.349 C 311.111 35.771,311.384 36.321,311.617 36.573 C 311.851 36.824,312.183 37.501,312.356 38.077 C 312.528 38.653,312.853 39.308,313.078 39.533 C 313.303 39.757,313.642 40.304,313.832 40.748 C 314.022 41.191,314.325 41.682,314.505 41.838 C 314.685 41.994,314.946 42.444,315.085 42.838 C 315.224 43.232,315.588 43.861,315.894 44.236 C 316.200 44.610,316.576 45.160,316.729 45.457 C 316.882 45.754,317.178 46.109,317.387 46.246 C 317.596 46.383,317.899 46.795,318.062 47.163 C 318.224 47.530,318.558 48.037,318.804 48.290 C 319.051 48.543,319.429 49.100,319.645 49.527 C 319.861 49.955,320.180 50.342,320.354 50.387 C 320.529 50.433,320.781 50.733,320.915 51.054 C 321.050 51.376,321.386 51.800,321.663 51.997 C 321.940 52.195,322.167 52.457,322.167 52.579 C 322.167 52.702,322.521 53.241,322.955 53.776 C 323.388 54.312,323.819 54.851,323.913 54.974 C 324.007 55.097,324.365 55.487,324.708 55.842 C 325.052 56.197,325.333 56.556,325.333 56.641 C 325.333 56.784,325.977 57.526,327.380 59.000 C 327.685 59.321,328.037 59.788,328.161 60.039 C 328.285 60.289,328.526 60.539,328.695 60.592 C 328.865 60.646,329.126 60.929,329.275 61.220 C 329.574 61.804,330.565 63.053,331.548 64.083 C 331.898 64.450,332.328 65.025,332.505 65.361 C 332.681 65.697,333.052 66.133,333.330 66.331 C 333.607 66.528,333.833 66.793,333.833 66.920 C 333.833 67.046,334.090 67.346,334.404 67.585 C 334.718 67.824,335.046 68.225,335.133 68.476 C 335.221 68.727,335.583 69.274,335.938 69.692 C 336.293 70.110,336.696 70.622,336.833 70.830 C 336.971 71.038,337.365 71.553,337.708 71.976 C 338.052 72.398,338.333 72.834,338.333 72.943 C 338.333 73.053,338.502 73.279,338.708 73.446 C 338.915 73.613,339.298 74.162,339.561 74.667 C 339.823 75.171,340.171 75.701,340.334 75.845 C 340.496 75.989,340.796 76.439,341.000 76.845 C 341.205 77.251,341.541 77.733,341.748 77.917 C 341.955 78.100,342.248 78.575,342.400 78.972 C 342.551 79.369,342.900 79.931,343.174 80.222 C 343.449 80.512,343.721 80.938,343.777 81.167 C 343.925 81.763,344.318 82.509,344.775 83.056 C 344.992 83.316,345.254 83.867,345.358 84.280 C 345.462 84.693,345.793 85.389,346.093 85.825 C 346.427 86.310,346.686 86.935,346.759 87.434 C 346.916 88.506,347.047 88.828,347.540 89.357 C 347.843 89.681,348.021 90.180,348.218 91.254 C 348.389 92.184,348.639 92.943,348.909 93.351 C 349.197 93.787,349.414 94.482,349.590 95.537 C 349.745 96.461,350.049 97.499,350.347 98.117 C 350.673 98.792,350.900 99.601,351.001 100.450 C 351.176 101.918,351.393 102.771,351.846 103.773 C 352.230 104.623,352.414 105.418,352.745 107.667 C 352.923 108.876,353.111 109.564,353.353 109.893 C 353.604 110.234,353.769 110.872,353.936 112.143 C 354.191 114.090,354.415 114.937,354.785 115.362 C 354.919 115.515,355.170 116.483,355.343 117.513 C 355.570 118.865,355.772 119.552,356.068 119.984 C 356.338 120.378,356.581 121.127,356.774 122.167 C 356.999 123.374,357.199 123.942,357.618 124.560 C 357.961 125.067,358.167 125.575,358.167 125.915 C 358.167 126.540,358.492 127.396,358.958 128.000 C 359.136 128.229,359.479 128.942,359.723 129.584 C 359.966 130.226,360.303 130.839,360.473 130.944 C 360.644 131.051,360.907 131.584,361.064 132.145 C 361.272 132.885,361.477 133.246,361.836 133.502 C 362.127 133.709,362.406 134.120,362.525 134.517 C 362.635 134.884,362.924 135.386,363.168 135.634 C 363.411 135.881,363.786 136.383,364.000 136.750 C 364.214 137.117,364.601 137.591,364.861 137.804 C 365.121 138.017,365.333 138.293,365.333 138.418 C 365.333 138.542,365.668 138.918,366.077 139.254 C 366.486 139.589,366.866 140.007,366.922 140.183 C 366.978 140.359,367.243 140.617,367.511 140.756 C 367.779 140.894,368.106 141.264,368.236 141.576 C 368.370 141.896,368.698 142.260,368.987 142.410 C 369.297 142.570,369.500 142.805,369.500 143.004 C 369.500 143.222,369.613 143.333,369.833 143.333 C 370.382 143.333,370.234 142.679,369.536 142.016 C 369.189 141.686,368.817 141.214,368.710 140.966 C 368.602 140.719,368.290 140.400,368.017 140.259 C 367.743 140.117,367.420 139.795,367.300 139.544 C 367.179 139.292,366.884 138.992,366.644 138.877 C 366.404 138.762,366.114 138.441,365.999 138.164 C 365.884 137.887,365.594 137.492,365.353 137.287 C 365.113 137.082,364.806 136.689,364.671 136.415 C 364.535 136.141,364.112 135.504,363.730 135.000 C 363.348 134.496,362.989 133.926,362.931 133.733 C 362.873 133.540,362.606 133.185,362.336 132.945 C 362.022 132.665,361.746 132.166,361.569 131.560 C 361.418 131.039,361.103 130.421,360.870 130.189 C 360.634 129.952,360.305 129.285,360.124 128.674 C 359.933 128.032,359.639 127.446,359.408 127.250 C 359.129 127.012,358.948 126.576,358.779 125.731 C 358.647 125.079,358.356 124.179,358.132 123.731 C 357.907 123.283,357.552 122.204,357.342 121.333 C 357.133 120.462,356.715 119.225,356.415 118.583 C 356.073 117.851,355.826 117.013,355.755 116.333 C 355.601 114.876,355.365 114.013,354.969 113.457 C 354.739 113.134,354.544 112.327,354.322 110.789 C 354.012 108.642,353.756 107.667,353.501 107.667 C 353.365 107.667,353.080 106.278,352.920 104.833 C 352.786 103.627,352.495 102.333,352.357 102.333 C 352.063 102.333,351.798 101.484,351.562 99.787 C 351.378 98.463,351.157 97.608,350.799 96.844 C 350.522 96.251,350.235 95.388,350.161 94.925 C 349.950 93.607,349.667 92.611,349.427 92.336 C 348.997 91.843,348.708 91.070,348.590 90.103 C 348.502 89.380,348.360 89.012,348.051 88.703 C 347.588 88.239,347.442 87.871,347.167 86.469 C 347.052 85.886,346.796 85.289,346.499 84.915 C 346.233 84.581,345.899 83.906,345.757 83.415 C 345.614 82.924,345.309 82.299,345.080 82.026 C 344.850 81.754,344.548 81.206,344.408 80.809 C 344.268 80.413,343.981 79.899,343.771 79.669 C 343.560 79.439,343.178 78.875,342.922 78.417 C 342.666 77.958,342.251 77.358,341.999 77.083 C 341.748 76.808,341.498 76.394,341.444 76.162 C 341.390 75.931,341.091 75.443,340.780 75.079 C 340.469 74.715,340.057 74.107,339.864 73.729 C 339.672 73.351,339.395 72.995,339.250 72.940 C 339.104 72.884,338.867 72.556,338.723 72.211 C 338.580 71.866,338.208 71.302,337.898 70.958 C 337.587 70.614,337.333 70.274,337.333 70.202 C 337.333 70.130,337.031 69.736,336.662 69.327 C 336.293 68.918,335.874 68.368,335.730 68.104 C 335.587 67.840,335.173 67.315,334.810 66.937 C 333.280 65.344,333.044 65.057,332.838 64.536 C 332.719 64.235,332.463 63.860,332.269 63.703 C 332.075 63.545,331.695 63.117,331.425 62.750 C 331.154 62.383,330.756 61.896,330.541 61.667 C 330.326 61.438,329.774 60.800,329.316 60.250 C 328.297 59.027,327.256 57.840,326.561 57.109 C 326.274 56.807,325.926 56.340,325.786 56.071 C 325.647 55.803,325.357 55.390,325.142 55.153 C 324.030 53.932,323.053 52.701,322.878 52.300 C 322.770 52.053,322.488 51.724,322.251 51.569 C 322.014 51.413,321.632 50.966,321.403 50.575 C 321.174 50.184,320.884 49.824,320.759 49.776 C 320.634 49.728,320.285 49.226,319.983 48.660 C 319.682 48.095,319.266 47.521,319.059 47.386 C 318.853 47.250,318.598 46.882,318.495 46.567 C 318.380 46.219,318.117 45.897,317.826 45.746 C 317.491 45.573,317.291 45.297,317.167 44.834 C 317.068 44.469,316.809 43.991,316.590 43.772 C 316.371 43.553,315.969 42.933,315.697 42.395 C 315.426 41.857,315.045 41.274,314.852 41.099 C 314.658 40.925,314.500 40.697,314.500 40.593 C 314.500 40.279,313.866 39.136,313.438 38.679 C 313.217 38.443,312.914 37.819,312.764 37.292 C 312.614 36.766,312.268 36.081,311.996 35.770 C 311.723 35.460,311.500 35.059,311.500 34.879 C 311.500 34.246,311.006 32.923,310.676 32.671 C 310.430 32.484,310.249 31.953,309.996 30.667 C 309.807 29.704,309.457 28.512,309.219 28.018 C 308.936 27.431,308.738 26.652,308.648 25.768 C 308.337 22.723,308.128 19.037,308.226 18.333 C 308.284 17.921,308.402 16.196,308.489 14.500 C 308.668 11.006,308.856 9.696,309.344 8.558 C 309.531 8.122,309.789 6.937,309.918 5.924 C 310.164 4.000,310.372 3.105,310.653 2.766 C 310.842 2.539,311.333 0.756,311.333 0.298 C 311.333 0.091,311.206 0.000,310.917 0.000 C 310.586 0.000,310.500 0.084,310.500 0.407 " stroke="none" fill="#9c7c94" fill-rule="evenodd"></path><path id="path3" d="M7.833 0.333 C 7.833 0.691,7.747 0.715,6.399 0.738 C 5.341 0.755,4.946 1.043,5.089 1.693 C 5.192 2.160,5.182 2.167,4.430 2.167 L 3.667 2.167 3.667 2.917 L 3.667 3.667 2.917 3.667 L 2.167 3.667 2.167 4.322 C 2.167 5.014,1.841 5.287,1.276 5.070 C 0.968 4.952,0.587 5.718,0.746 6.133 C 0.950 6.665,0.640 8.000,0.312 8.000 C 0.008 8.000,0.000 9.572,0.000 71.667 C 0.000 135.222,0.001 135.333,0.333 135.333 C 0.691 135.333,0.697 135.348,0.757 136.541 C 0.821 137.807,0.958 138.166,1.378 138.169 C 1.932 138.173,2.106 138.351,2.234 139.042 C 2.343 139.639,2.377 139.667,3.008 139.667 C 3.658 139.667,3.806 139.863,3.680 140.560 C 3.617 140.911,4.308 141.156,5.375 141.161 L 6.500 141.167 6.500 141.730 C 6.500 142.306,6.803 142.710,7.196 142.657 C 8.261 142.513,9.333 142.685,9.333 143.000 C 9.333 143.333,9.444 143.333,177.333 143.333 L 345.333 143.333 345.333 142.928 C 345.333 142.686,345.214 142.485,345.037 142.428 C 344.874 142.377,344.631 142.166,344.496 141.960 C 344.360 141.754,343.556 140.895,342.708 140.053 C 341.860 139.210,341.167 138.461,341.167 138.389 C 341.167 138.316,340.885 137.987,340.542 137.657 C 339.602 136.754,338.803 135.700,338.286 134.679 C 338.031 134.176,337.679 133.631,337.503 133.467 C 337.327 133.303,337.030 132.850,336.842 132.460 C 336.655 132.069,336.284 131.404,336.019 130.981 C 335.754 130.558,335.486 129.981,335.424 129.699 C 335.362 129.417,335.097 128.890,334.834 128.528 C 334.360 127.873,334.102 127.152,333.915 125.955 C 333.861 125.609,333.605 125.084,333.346 124.788 C 332.997 124.389,332.824 123.946,332.678 123.076 C 332.570 122.430,332.392 121.746,332.282 121.556 C 332.173 121.366,331.945 120.966,331.776 120.667 C 331.607 120.367,331.365 119.429,331.237 118.581 C 331.110 117.733,330.785 116.486,330.516 115.811 C 330.247 115.136,329.938 114.096,329.831 113.500 C 329.723 112.904,329.372 111.479,329.050 110.333 C 328.728 109.188,328.361 107.575,328.235 106.750 C 328.029 105.412,327.759 104.490,327.324 103.639 C 327.245 103.486,327.099 102.849,326.998 102.222 C 326.704 100.388,326.478 99.463,326.146 98.719 C 325.799 97.940,325.333 96.263,325.333 95.788 C 325.333 95.618,325.147 95.070,324.918 94.571 C 324.690 94.073,324.382 93.121,324.232 92.457 C 324.083 91.793,323.668 90.632,323.310 89.876 C 322.952 89.121,322.584 88.109,322.493 87.626 C 322.401 87.136,322.084 86.383,321.773 85.917 C 321.468 85.458,321.123 84.746,321.007 84.334 C 320.890 83.921,320.588 83.348,320.335 83.060 C 320.082 82.772,319.782 82.148,319.668 81.674 C 319.544 81.155,319.331 80.734,319.133 80.614 C 318.952 80.506,318.588 79.991,318.323 79.470 C 318.058 78.950,317.757 78.473,317.655 78.409 C 317.552 78.346,317.261 77.834,317.007 77.272 C 316.753 76.710,316.389 76.110,316.197 75.939 C 316.005 75.768,315.651 75.243,315.409 74.773 C 315.168 74.302,314.752 73.707,314.485 73.450 C 314.218 73.193,314.000 72.914,314.000 72.830 C 314.000 72.746,313.662 72.298,313.250 71.833 C 312.837 71.369,312.500 70.921,312.500 70.838 C 312.500 70.755,312.200 70.340,311.833 69.917 C 311.467 69.493,311.167 69.090,311.167 69.022 C 311.167 68.953,310.848 68.515,310.458 68.048 C 310.069 67.581,309.412 66.767,309.000 66.240 C 308.587 65.713,307.931 64.948,307.542 64.539 C 307.152 64.130,306.833 63.724,306.833 63.636 C 306.833 63.548,306.574 63.200,306.258 62.863 C 305.020 61.545,304.194 60.553,303.771 59.875 C 303.528 59.485,303.257 59.167,303.169 59.167 C 303.081 59.167,302.894 58.945,302.754 58.674 C 302.614 58.403,302.117 57.785,301.649 57.299 C 300.187 55.781,299.881 55.429,299.666 55.014 C 299.431 54.559,298.258 53.062,297.403 52.127 C 297.090 51.785,296.833 51.431,296.833 51.341 C 296.833 51.191,296.283 50.498,294.758 48.732 C 294.433 48.355,294.167 47.998,294.167 47.938 C 294.167 47.806,293.026 46.170,292.720 45.863 C 292.599 45.742,292.500 45.532,292.500 45.397 C 292.500 45.261,292.235 44.877,291.910 44.543 C 291.586 44.209,291.172 43.600,290.990 43.190 C 290.809 42.779,290.518 42.344,290.344 42.222 C 290.170 42.100,289.897 41.644,289.736 41.209 C 289.576 40.773,289.265 40.172,289.046 39.873 C 288.826 39.573,288.452 38.898,288.214 38.373 C 287.977 37.847,287.641 37.214,287.468 36.965 C 287.295 36.717,286.983 36.042,286.773 35.465 C 286.563 34.889,286.186 34.092,285.935 33.695 C 285.664 33.266,285.380 32.457,285.236 31.703 C 285.102 31.005,284.812 30.124,284.590 29.746 C 284.368 29.367,284.112 28.576,284.020 27.987 C 283.928 27.398,283.693 25.867,283.497 24.583 C 283.301 23.300,283.072 21.890,282.987 21.450 C 282.789 20.421,282.790 18.407,282.989 17.383 C 283.331 15.618,283.662 12.954,283.833 10.583 C 284.010 8.127,284.178 7.246,284.593 6.583 C 284.806 6.243,284.997 5.379,285.345 3.179 C 285.453 2.498,285.681 1.710,285.853 1.429 C 286.025 1.147,286.166 0.710,286.166 0.458 L 286.167 0.000 147.000 0.000 C 7.944 0.000,7.833 0.000,7.833 0.333 " stroke="none" fill="#4c44bc" fill-rule="evenodd"></path><path id="path4" d="M309.667 0.409 C 309.667 0.634,309.591 0.990,309.499 1.200 C 309.408 1.411,309.270 2.415,309.195 3.432 C 309.074 5.056,309.004 5.351,308.617 5.858 C 308.039 6.616,307.876 7.544,307.764 10.713 C 307.678 13.169,307.644 13.384,307.253 13.960 C 306.975 14.368,306.834 14.804,306.835 15.247 C 306.836 15.615,306.748 16.633,306.639 17.510 C 306.345 19.888,306.615 22.776,307.197 23.467 C 307.594 23.940,307.630 24.131,307.741 26.362 C 307.856 28.673,308.083 30.167,308.322 30.167 C 308.743 30.167,309.167 30.900,309.168 31.631 C 309.169 32.755,309.440 33.582,309.988 34.129 C 310.317 34.458,310.526 34.907,310.667 35.585 C 310.896 36.688,311.152 37.333,311.360 37.333 C 311.684 37.333,312.167 38.035,312.167 38.505 C 312.167 39.238,312.609 40.183,312.999 40.285 C 313.235 40.347,313.413 40.638,313.594 41.263 C 313.753 41.810,314.030 42.302,314.311 42.539 C 314.584 42.769,314.860 43.251,314.996 43.734 C 315.169 44.354,315.353 44.621,315.778 44.872 C 316.149 45.091,316.333 45.326,316.333 45.580 C 316.333 45.794,316.609 46.244,316.965 46.610 C 317.312 46.968,317.754 47.598,317.948 48.010 C 318.142 48.422,318.493 48.862,318.728 48.988 C 318.987 49.127,319.245 49.485,319.383 49.898 C 319.562 50.436,319.720 50.610,320.138 50.730 C 320.528 50.842,320.667 50.979,320.667 51.252 C 320.667 51.633,321.193 52.425,321.690 52.791 C 321.845 52.906,322.094 53.319,322.243 53.709 C 322.412 54.150,322.702 54.527,323.010 54.703 C 323.283 54.860,323.553 55.122,323.611 55.286 C 323.758 55.702,324.351 56.333,324.594 56.333 C 324.706 56.333,324.920 56.641,325.070 57.016 C 325.256 57.479,325.495 57.756,325.812 57.876 C 326.117 57.991,326.332 58.232,326.431 58.568 C 326.530 58.901,326.770 59.172,327.111 59.333 C 327.448 59.493,327.670 59.742,327.728 60.022 C 327.777 60.263,327.933 60.576,328.075 60.718 C 328.217 60.860,328.333 61.044,328.333 61.127 C 328.333 61.209,328.517 61.375,328.741 61.495 C 328.966 61.615,329.258 61.984,329.391 62.315 C 329.524 62.646,329.869 63.090,330.158 63.303 C 330.447 63.515,330.753 63.873,330.839 64.099 C 330.925 64.324,331.251 64.659,331.564 64.844 C 331.899 65.041,332.181 65.367,332.247 65.631 C 332.390 66.201,332.635 66.496,333.118 66.680 C 333.328 66.760,333.501 66.958,333.503 67.121 C 333.504 67.284,333.834 67.767,334.235 68.194 C 334.637 68.622,335.053 69.238,335.160 69.562 C 335.280 69.928,335.568 70.284,335.915 70.499 C 336.275 70.721,336.516 71.027,336.587 71.350 C 336.665 71.704,336.866 71.934,337.265 72.124 C 337.697 72.330,337.833 72.499,337.833 72.830 C 337.833 73.281,338.048 73.624,338.938 74.599 C 339.224 74.913,339.503 75.388,339.556 75.655 C 339.616 75.956,339.845 76.253,340.159 76.439 C 340.501 76.640,340.698 76.914,340.767 77.282 C 340.823 77.582,341.156 78.152,341.505 78.550 C 341.855 78.947,342.206 79.530,342.285 79.845 C 342.385 80.241,342.585 80.493,342.937 80.665 C 343.387 80.885,343.467 81.037,343.628 81.974 C 343.754 82.709,343.913 83.108,344.147 83.271 C 344.779 83.714,345.000 84.024,345.000 84.465 C 345.000 85.166,345.497 86.279,345.891 86.458 C 346.183 86.591,346.289 86.862,346.453 87.891 C 346.680 89.318,347.050 90.167,347.495 90.284 C 347.807 90.365,347.994 91.064,347.999 92.167 C 348.003 93.090,348.318 93.987,348.822 94.515 C 349.243 94.955,349.299 95.158,349.406 96.619 C 349.532 98.328,349.657 98.713,350.260 99.250 C 350.590 99.543,350.656 99.836,350.807 101.697 C 350.981 103.826,351.229 104.665,351.777 104.972 C 351.992 105.092,352.083 105.510,352.184 106.855 C 352.377 109.418,352.560 110.175,353.098 110.638 C 353.534 111.013,353.566 111.141,353.700 113.003 C 353.859 115.224,354.117 116.177,354.621 116.407 C 354.916 116.542,354.982 116.771,355.078 117.991 C 355.247 120.140,355.534 120.983,356.167 121.194 C 356.261 121.226,356.415 121.926,356.507 122.751 C 356.723 124.671,356.764 124.789,357.325 125.079 C 357.746 125.297,357.805 125.436,357.912 126.452 C 358.046 127.729,358.332 128.450,358.926 129.009 C 359.150 129.219,359.333 129.533,359.333 129.706 C 359.333 130.263,360.021 131.642,360.434 131.913 C 360.654 132.057,360.833 132.330,360.833 132.520 C 360.833 133.113,361.338 133.977,361.716 134.032 C 361.976 134.070,362.104 134.251,362.200 134.714 C 362.392 135.641,362.795 136.327,363.252 136.501 C 363.510 136.599,363.703 136.850,363.791 137.202 C 363.886 137.581,364.090 137.827,364.452 138.000 C 364.833 138.182,365.003 138.400,365.080 138.804 C 365.163 139.233,365.316 139.413,365.760 139.598 C 366.075 139.730,366.333 139.945,366.333 140.077 C 366.333 140.402,367.012 141.112,367.396 141.188 C 367.577 141.224,367.786 141.492,367.895 141.828 C 368.038 142.267,368.213 142.442,368.625 142.560 C 368.986 142.663,369.167 142.818,369.167 143.024 C 369.167 143.194,369.242 143.333,369.333 143.333 C 369.724 143.333,369.471 142.660,368.987 142.410 C 368.698 142.260,368.370 141.896,368.236 141.576 C 368.106 141.264,367.779 140.894,367.511 140.756 C 367.243 140.617,366.978 140.359,366.922 140.183 C 366.866 140.007,366.486 139.589,366.077 139.254 C 365.668 138.918,365.333 138.542,365.333 138.418 C 365.333 138.293,365.121 138.017,364.861 137.804 C 364.601 137.591,364.214 137.117,364.000 136.750 C 363.786 136.383,363.411 135.881,363.168 135.634 C 362.924 135.386,362.635 134.884,362.525 134.517 C 362.406 134.120,362.127 133.709,361.836 133.502 C 361.477 133.246,361.272 132.885,361.064 132.145 C 360.907 131.584,360.644 131.051,360.473 130.944 C 360.303 130.839,359.966 130.226,359.723 129.584 C 359.479 128.942,359.136 128.229,358.958 128.000 C 358.492 127.396,358.167 126.540,358.167 125.915 C 358.167 125.575,357.961 125.067,357.618 124.560 C 357.199 123.942,356.999 123.374,356.774 122.167 C 356.581 121.127,356.338 120.378,356.068 119.984 C 355.772 119.552,355.570 118.865,355.343 117.513 C 355.170 116.483,354.919 115.515,354.785 115.362 C 354.415 114.937,354.191 114.090,353.936 112.143 C 353.769 110.872,353.604 110.234,353.353 109.893 C 353.111 109.564,352.923 108.876,352.745 107.667 C 352.414 105.418,352.230 104.623,351.846 103.773 C 351.393 102.771,351.176 101.918,351.001 100.450 C 350.900 99.601,350.673 98.792,350.347 98.117 C 350.049 97.499,349.745 96.461,349.590 95.537 C 349.414 94.482,349.197 93.787,348.909 93.351 C 348.639 92.943,348.389 92.184,348.218 91.254 C 348.021 90.180,347.843 89.681,347.540 89.357 C 347.047 88.828,346.916 88.506,346.759 87.434 C 346.686 86.935,346.427 86.310,346.093 85.825 C 345.793 85.389,345.462 84.693,345.358 84.280 C 345.254 83.867,344.992 83.316,344.775 83.056 C 344.318 82.509,343.925 81.763,343.777 81.167 C 343.721 80.938,343.449 80.512,343.174 80.222 C 342.900 79.931,342.551 79.369,342.400 78.972 C 342.248 78.575,341.955 78.100,341.748 77.917 C 341.541 77.733,341.205 77.251,341.000 76.845 C 340.796 76.439,340.496 75.989,340.334 75.845 C 340.171 75.701,339.823 75.171,339.561 74.667 C 339.298 74.162,338.915 73.613,338.708 73.446 C 338.502 73.279,338.333 73.053,338.333 72.943 C 338.333 72.834,338.052 72.398,337.708 71.976 C 337.365 71.553,336.971 71.038,336.833 70.830 C 336.696 70.622,336.293 70.110,335.938 69.692 C 335.583 69.274,335.221 68.727,335.133 68.476 C 335.046 68.225,334.718 67.824,334.404 67.585 C 334.090 67.346,333.833 67.046,333.833 66.920 C 333.833 66.793,333.607 66.528,333.330 66.331 C 333.052 66.133,332.681 65.697,332.505 65.361 C 332.328 65.025,331.898 64.450,331.548 64.083 C 330.565 63.053,329.574 61.804,329.275 61.220 C 329.126 60.929,328.865 60.646,328.695 60.592 C 328.526 60.539,328.285 60.289,328.161 60.039 C 328.037 59.788,327.685 59.321,327.380 59.000 C 325.977 57.526,325.333 56.784,325.333 56.641 C 325.333 56.556,325.052 56.197,324.708 55.842 C 324.365 55.487,324.007 55.097,323.913 54.974 C 323.819 54.851,323.388 54.312,322.955 53.776 C 322.521 53.241,322.167 52.702,322.167 52.579 C 322.167 52.457,321.940 52.195,321.663 51.997 C 321.386 51.800,321.050 51.376,320.915 51.054 C 320.781 50.733,320.529 50.433,320.354 50.387 C 320.180 50.342,319.861 49.955,319.645 49.527 C 319.429 49.100,319.051 48.543,318.804 48.290 C 318.558 48.037,318.224 47.530,318.062 47.163 C 317.899 46.795,317.596 46.383,317.387 46.246 C 317.178 46.109,316.882 45.754,316.729 45.457 C 316.576 45.160,316.200 44.610,315.894 44.236 C 315.588 43.861,315.224 43.232,315.085 42.838 C 314.946 42.444,314.685 41.994,314.505 41.838 C 314.325 41.682,314.022 41.191,313.832 40.748 C 313.642 40.304,313.303 39.757,313.078 39.533 C 312.853 39.308,312.528 38.653,312.356 38.077 C 312.183 37.501,311.851 36.824,311.617 36.573 C 311.384 36.321,311.111 35.771,311.010 35.349 C 310.787 34.420,310.328 33.333,310.159 33.333 C 309.987 33.333,309.850 32.964,309.415 31.333 C 309.207 30.554,308.842 29.458,308.604 28.896 C 308.273 28.116,308.131 27.391,308.001 25.813 C 307.907 24.678,307.713 23.074,307.570 22.249 C 307.296 20.675,307.313 19.158,307.644 15.750 C 307.742 14.742,307.928 12.679,308.058 11.167 C 308.246 8.981,308.383 8.194,308.726 7.333 C 308.963 6.737,309.237 5.763,309.336 5.167 C 309.434 4.571,309.593 3.596,309.689 3.000 C 309.784 2.404,310.006 1.669,310.181 1.365 C 310.648 0.559,310.608 0.000,310.083 0.000 C 309.752 0.000,309.667 0.084,309.667 0.409 " stroke="none" fill="#81699e" fill-rule="evenodd"></path></g></svg>