<svg id="Jd_Mart_Logo" data-name="Jd Mart Logo" xmlns="http://www.w3.org/2000/svg" width="115.569" height="52.256" viewBox="0 0 115.569 52.256">
  <defs>
    <style>
      .cls-1 {
        fill: none;
      }

      .cls-2 {
        fill: #0d60ad;
      }

      .cls-3 {
        fill: #ef5413;
      }

      .cls-4 {
        fill: #666;
      }

      .cls-5 {
        fill: #333;
      }
    </style>
  </defs>
  <rect id="Rectangle_13550" data-name="Rectangle 13550" class="cls-1" width="94" height="43" transform="translate(12.638)"/>
  <g id="JdMart_logo" transform="translate(11.636 9)">
    <path id="Path_5850" data-name="Path 5850" class="cls-2" d="M1937.979,768.233a1.753,1.753,0,0,0-.606-1.224,2.286,2.286,0,0,0-3.469.2,1.734,1.734,0,0,0-.338,1.019V784.1c0,1.013-.193,2.735-1.947,2.735-1.411,0-2.509-1.169-3.763-1.169a1.947,1.947,0,0,0-1.76,1.926c0,2.75,3.607,3.606,5.772,3.606,2.852,0,6.11-1.2,6.11-6.5Z" transform="translate(-1926.096 -766.2)"/>
    <path id="Path_5851" data-name="Path 5851" class="cls-3" d="M1999.692,765.856a1.978,1.978,0,0,0-1.617.6,2.092,2.092,0,0,0-.566,1.666v6.531a6.42,6.42,0,0,0-4.322-1.4c-4.826,0-7.226,4.583-7.226,9.01,0,4.3,2.861,8.571,7.377,8.571a4.863,4.863,0,0,0,4.1-2.091,2.155,2.155,0,0,0,2.239,1.9,2.226,2.226,0,0,0,1.667-.759,2.352,2.352,0,0,0,.576-1.776V768.13a2.131,2.131,0,0,0-.6-1.676,2.017,2.017,0,0,0-1.632-.6Zm-5.76,20.808c-2.335,0-3.483-2.465-3.483-4.583,0-2.149,1.153-4.646,3.483-4.646,2.4,0,3.517,2.276,3.517,4.489s-1.061,4.75-3.517,4.75Z" transform="translate(-1971.642 -765.847)"/>
    <path id="Path_5852" data-name="Path 5852" class="cls-4" d="M8.418-67.414h3.541V-78.953l4.755,11.539h2.68l4.727-11.539v11.539h3.541V-85.156H23.669l-5.615,13.2-5.615-13.2H8.418Zm21.827-7.091c0,4.4,2.832,7.32,6.373,7.32a5.517,5.517,0,0,0,4.653-2.288v2.059H44.84V-81.5H41.271v2.008a5.531,5.531,0,0,0-4.628-2.236c-3.566,0-6.4,2.821-6.4,7.219Zm11.027.051a3.8,3.8,0,0,1-.955,2.891,3.764,3.764,0,0,1-2.763,1.252,3.821,3.821,0,0,1-2.747-1.3,3.86,3.86,0,0,1-.946-2.9,3.762,3.762,0,0,1,.952-2.862A3.723,3.723,0,0,1,37.554-78.6a3.764,3.764,0,0,1,2.761,1.25,3.8,3.8,0,0,1,.957,2.887Zm10.573.025c0-2.72,1.265-3.533,3.358-3.533h.935V-81.7a4.854,4.854,0,0,0-4.3,2.389V-81.5H48.3v14.082h3.54Zm7.233,2.644c0,3.228,1.8,4.375,4.478,4.375H65.78v-3H64.134c-1.113,0-1.493-.406-1.493-1.348v-6.815h3.136V-81.5H62.643v-3.483H59.077V-81.5H57.4v2.923h1.669Z" transform="translate(26.221 91.79)"/>
  </g>
  <g id="Group_29094" data-name="Group 29094" transform="translate(-7567.363 21550)">
    <path id="Path_37827" data-name="Path 37827" class="cls-5" d="M1.738,7.382H.363a2.911,2.911,0,0,0,.275,1.26,2.476,2.476,0,0,0,.7.874,2.961,2.961,0,0,0,1.034.506,4.708,4.708,0,0,0,1.265.165,4.788,4.788,0,0,0,1.144-.137,3.084,3.084,0,0,0,1-.435,2.287,2.287,0,0,0,.71-.764,2.223,2.223,0,0,0,.269-1.128,2.108,2.108,0,0,0-.094-.616,1.974,1.974,0,0,0-.286-.577,2.116,2.116,0,0,0-.478-.479,2.292,2.292,0,0,0-.671-.33q-.154-.044-.511-.137l-.732-.193-.676-.181L2.97,5.116a1.674,1.674,0,0,1-.676-.358A.843.843,0,0,1,2.035,4.1a.847.847,0,0,1,.138-.5A1.014,1.014,0,0,1,2.519,3.3a1.573,1.573,0,0,1,.462-.165,2.575,2.575,0,0,1,.495-.049,2.053,2.053,0,0,1,1.177.313A1.325,1.325,0,0,1,5.17,4.467H6.545a2.27,2.27,0,0,0-.9-1.87,2.862,2.862,0,0,0-.957-.478,4.109,4.109,0,0,0-1.161-.16A4.049,4.049,0,0,0,2.486,2.1a2.878,2.878,0,0,0-.924.424,2.2,2.2,0,0,0-.655.72A2.044,2.044,0,0,0,.66,4.269a2.25,2.25,0,0,0,.082.605,1.68,1.68,0,0,0,.28.561,2.007,2.007,0,0,0,.534.478A2.936,2.936,0,0,0,2.4,6.26q.814.22,1.37.357a9.313,9.313,0,0,1,.973.292,1.162,1.162,0,0,1,.445.3.939.939,0,0,1,.2.665,1.135,1.135,0,0,1-.088.434.974.974,0,0,1-.286.38A1.558,1.558,0,0,1,4.5,8.96a2.49,2.49,0,0,1-.77.1,3.058,3.058,0,0,1-.776-.093,1.829,1.829,0,0,1-.632-.3,1.391,1.391,0,0,1-.429-.523A1.758,1.758,0,0,1,1.738,7.382Zm9.955-.726H8.767a1.669,1.669,0,0,1,.126-.594A1.578,1.578,0,0,1,9.2,5.583a1.371,1.371,0,0,1,.462-.319,1.507,1.507,0,0,1,.6-.115,1.3,1.3,0,0,1,.577.127,1.416,1.416,0,0,1,.44.33,1.524,1.524,0,0,1,.286.478A2.022,2.022,0,0,1,11.693,6.656Zm-2.926.825h4.18a3.254,3.254,0,0,0-.083-1.238,3.006,3.006,0,0,0-.511-1.062,2.643,2.643,0,0,0-.885-.742,2.549,2.549,0,0,0-1.2-.28,2.58,2.58,0,0,0-2.008.9,2.943,2.943,0,0,0-.55.957,3.423,3.423,0,0,0-.193,1.149,3.843,3.843,0,0,0,.182,1.21,2.614,2.614,0,0,0,.539.946,2.456,2.456,0,0,0,.875.616,3.011,3.011,0,0,0,1.188.22,3.077,3.077,0,0,0,.885-.127,2.516,2.516,0,0,0,.765-.374,2.358,2.358,0,0,0,.924-1.435H11.682a1.4,1.4,0,0,1-.5.709,1.506,1.506,0,0,1-.885.236,1.561,1.561,0,0,1-.682-.137,1.352,1.352,0,0,1-.473-.368,1.572,1.572,0,0,1-.28-.539A2.184,2.184,0,0,1,8.767,7.481Zm5.17-5.335V10h1.254V2.146Zm2.651,0V10h1.254V2.146Zm6.754,5.236H21.967a2.911,2.911,0,0,0,.275,1.26,2.476,2.476,0,0,0,.7.874,2.961,2.961,0,0,0,1.034.506,4.708,4.708,0,0,0,1.265.165,4.788,4.788,0,0,0,1.144-.137,3.084,3.084,0,0,0,1-.435,2.287,2.287,0,0,0,.71-.764,2.223,2.223,0,0,0,.269-1.128,2.108,2.108,0,0,0-.093-.616,1.974,1.974,0,0,0-.286-.577,2.116,2.116,0,0,0-.479-.479,2.292,2.292,0,0,0-.671-.33q-.154-.044-.511-.137L25.6,5.391l-.677-.181-.347-.094a1.674,1.674,0,0,1-.676-.358.843.843,0,0,1-.259-.654.847.847,0,0,1,.138-.5,1.014,1.014,0,0,1,.347-.314,1.573,1.573,0,0,1,.462-.165,2.575,2.575,0,0,1,.495-.049,2.053,2.053,0,0,1,1.177.313,1.325,1.325,0,0,1,.517,1.073h1.375a2.27,2.27,0,0,0-.9-1.87,2.862,2.862,0,0,0-.957-.478,4.109,4.109,0,0,0-1.16-.16A4.049,4.049,0,0,0,24.09,2.1a2.878,2.878,0,0,0-.924.424,2.2,2.2,0,0,0-.655.72,2.044,2.044,0,0,0-.247,1.029,2.25,2.25,0,0,0,.083.605,1.68,1.68,0,0,0,.281.561,2.007,2.007,0,0,0,.533.478A2.936,2.936,0,0,0,24,6.26q.814.22,1.369.357a9.313,9.313,0,0,1,.974.292,1.162,1.162,0,0,1,.445.3.939.939,0,0,1,.2.665,1.135,1.135,0,0,1-.088.434.974.974,0,0,1-.286.38,1.558,1.558,0,0,1-.517.269,2.49,2.49,0,0,1-.77.1,3.058,3.058,0,0,1-.775-.093,1.829,1.829,0,0,1-.633-.3,1.391,1.391,0,0,1-.429-.523A1.758,1.758,0,0,1,23.342,7.382Zm6.05-3.069V10h1.254V6.623A1.756,1.756,0,0,1,30.75,6a1.431,1.431,0,0,1,.275-.462,1.165,1.165,0,0,1,.4-.286,1.151,1.151,0,0,1,.467-.1.9.9,0,0,1,.786.3,1.548,1.548,0,0,1,.215.9V10h1.254V6.667a1.893,1.893,0,0,1,.286-1.122,1.062,1.062,0,0,1,.924-.4,1.239,1.239,0,0,1,.572.11.719.719,0,0,1,.313.313,1.271,1.271,0,0,1,.126.484q.022.28.022.621V10h1.254V6.073a1.878,1.878,0,0,0-.5-1.474,2.054,2.054,0,0,0-1.4-.44,1.987,1.987,0,0,0-1.045.253,2.531,2.531,0,0,0-.737.693,1.306,1.306,0,0,0-.632-.715,2.06,2.06,0,0,0-.963-.231,2.321,2.321,0,0,0-.6.071,1.864,1.864,0,0,0-.467.193,1.68,1.68,0,0,0-.368.3,3.22,3.22,0,0,0-.308.385H30.58V4.313ZM43.725,8.735V5.809a1.4,1.4,0,0,0-.2-.765A1.584,1.584,0,0,0,43,4.533a2.345,2.345,0,0,0-.731-.286,3.9,3.9,0,0,0-.825-.088,4.814,4.814,0,0,0-.924.088,2.408,2.408,0,0,0-.808.308,1.824,1.824,0,0,0-.589.583,1.888,1.888,0,0,0-.264.913h1.254a.858.858,0,0,1,.385-.682,1.575,1.575,0,0,1,.869-.22,3.041,3.041,0,0,1,.4.028,1.236,1.236,0,0,1,.38.11.775.775,0,0,1,.286.237.642.642,0,0,1,.116.4.56.56,0,0,1-.138.412.834.834,0,0,1-.374.2,3.046,3.046,0,0,1-.545.094,6.435,6.435,0,0,0-.649.094q-.4.044-.786.127a2.285,2.285,0,0,0-.7.269,1.426,1.426,0,0,0-.506.517,1.689,1.689,0,0,0-.192.858,1.593,1.593,0,0,0,.16.731,1.476,1.476,0,0,0,.429.517,1.934,1.934,0,0,0,.622.308,2.576,2.576,0,0,0,.737.1,3.617,3.617,0,0,0,1.05-.165,2.218,2.218,0,0,0,.919-.528A.767.767,0,0,0,42.9,10a1.209,1.209,0,0,0,.638.154q.077,0,.187-.011t.22-.033q.11-.022.214-.049t.171-.05V9.142a.822.822,0,0,1-.176.022h-.132a.255.255,0,0,1-.236-.1A.665.665,0,0,1,43.725,8.735ZM42.471,7.151v.935a.849.849,0,0,1-.143.5,1.2,1.2,0,0,1-.358.335,1.5,1.5,0,0,1-.456.187,2.042,2.042,0,0,1-.451.055,2.322,2.322,0,0,1-.368-.033,1.35,1.35,0,0,1-.374-.115.879.879,0,0,1-.292-.226.526.526,0,0,1-.121-.352.94.94,0,0,1,.083-.413.724.724,0,0,1,.226-.275,1.16,1.16,0,0,1,.33-.165,2.681,2.681,0,0,1,.385-.094q.418-.077.836-.115A1.522,1.522,0,0,0,42.471,7.151Zm2.607-2.838V10h1.254V7.294a2.642,2.642,0,0,1,.121-.836,1.833,1.833,0,0,1,.33-.61,1.377,1.377,0,0,1,.489-.374,1.442,1.442,0,0,1,.6-.126,2.261,2.261,0,0,1,.27.016q.138.016.27.039V4.192l-.171-.022a2.72,2.72,0,0,0-.3-.011,1.5,1.5,0,0,0-.561.11,1.945,1.945,0,0,0-.5.292,2.091,2.091,0,0,0-.385.4,1.269,1.269,0,0,0-.215.451h-.022v-1.1Zm3.3,0v.935h.946V8.6a3.435,3.435,0,0,0,.071.627.949.949,0,0,0,.231.457,1.065,1.065,0,0,0,.473.275,2.776,2.776,0,0,0,.8.094,3.684,3.684,0,0,0,.407-.022l.407-.044V9.021a1.312,1.312,0,0,1-.264.038q-.132.005-.264.005a.893.893,0,0,1-.33-.049.368.368,0,0,1-.181-.149.589.589,0,0,1-.077-.242,3.028,3.028,0,0,1-.017-.341V5.248h1.133V4.313H50.578V2.608H49.324V4.313Z" transform="translate(7567 -21510)"/>
    <path id="Path_37828" data-name="Path 37828" class="cls-5" d="M2.211,5.435V3.268H4.455a1.329,1.329,0,0,1,.858.242,1.024,1.024,0,0,1,.3.836,1,1,0,0,1-.33.808,1.23,1.23,0,0,1-.825.28ZM.836,2.146V10H4.444a4.447,4.447,0,0,0,1.309-.17,2.61,2.61,0,0,0,.9-.462,1.76,1.76,0,0,0,.517-.693,2.249,2.249,0,0,0,.165-.863,2.272,2.272,0,0,0-.374-1.337,1.716,1.716,0,0,0-1.1-.687V5.765a1.872,1.872,0,0,0,.83-.655,1.75,1.75,0,0,0,.292-1.017A1.72,1.72,0,0,0,6.347,2.63a2.733,2.733,0,0,0-1.694-.484ZM2.211,8.878V6.425H4.642a1.4,1.4,0,0,1,.973.313,1.147,1.147,0,0,1,.347.9,1.2,1.2,0,0,1-.347.918,1.369,1.369,0,0,1-.973.325ZM13.4,10V4.313H12.144v3.3a2.531,2.531,0,0,1-.071.616,1.244,1.244,0,0,1-.236.49,1.167,1.167,0,0,1-.429.325,1.584,1.584,0,0,1-.66.121,1.042,1.042,0,0,1-.8-.308A1.543,1.543,0,0,1,9.658,7.8V4.313H8.4V7.921A2.439,2.439,0,0,0,8.9,9.6a2.088,2.088,0,0,0,1.623.556,1.866,1.866,0,0,0,.929-.259,1.722,1.722,0,0,0,.688-.687h.022V10Zm.693-5.687,2.156,5.665-.143.44a2.421,2.421,0,0,1-.121.33.99.99,0,0,1-.16.247.6.6,0,0,1-.236.16,1.022,1.022,0,0,1-.363.055,1.57,1.57,0,0,1-.3-.028q-.143-.027-.3-.049v1.056a5.707,5.707,0,0,0,.869.066,1.818,1.818,0,0,0,.814-.16,1.569,1.569,0,0,0,.534-.429,2.638,2.638,0,0,0,.363-.622q.149-.352.3-.737l2.211-5.995H18.414L16.973,8.559h-.022L15.466,4.313ZM24.563,7.382H23.188a2.911,2.911,0,0,0,.275,1.26,2.476,2.476,0,0,0,.7.874,2.961,2.961,0,0,0,1.034.506,4.708,4.708,0,0,0,1.265.165,4.788,4.788,0,0,0,1.144-.137,3.084,3.084,0,0,0,1-.435,2.287,2.287,0,0,0,.71-.764,2.223,2.223,0,0,0,.269-1.128,2.108,2.108,0,0,0-.093-.616,1.974,1.974,0,0,0-.286-.577,2.116,2.116,0,0,0-.479-.479,2.292,2.292,0,0,0-.671-.33q-.154-.044-.511-.137l-.732-.193-.677-.181L25.8,5.116a1.674,1.674,0,0,1-.676-.358A.843.843,0,0,1,24.86,4.1a.847.847,0,0,1,.138-.5,1.014,1.014,0,0,1,.347-.314,1.573,1.573,0,0,1,.462-.165,2.575,2.575,0,0,1,.495-.049,2.053,2.053,0,0,1,1.177.313A1.325,1.325,0,0,1,28,4.467H29.37a2.27,2.27,0,0,0-.9-1.87,2.862,2.862,0,0,0-.957-.478,4.109,4.109,0,0,0-1.16-.16,4.049,4.049,0,0,0-1.045.138,2.878,2.878,0,0,0-.924.424,2.2,2.2,0,0,0-.655.72,2.044,2.044,0,0,0-.247,1.029,2.25,2.25,0,0,0,.083.605,1.68,1.68,0,0,0,.281.561,2.007,2.007,0,0,0,.533.478,2.936,2.936,0,0,0,.842.347q.814.22,1.369.357a9.313,9.313,0,0,1,.974.292,1.162,1.162,0,0,1,.445.3.939.939,0,0,1,.2.665,1.135,1.135,0,0,1-.088.434.974.974,0,0,1-.286.38,1.558,1.558,0,0,1-.517.269,2.49,2.49,0,0,1-.77.1,3.058,3.058,0,0,1-.775-.093,1.829,1.829,0,0,1-.633-.3,1.391,1.391,0,0,1-.429-.523A1.758,1.758,0,0,1,24.563,7.382Zm6.05-3.069V10h1.254V6.623a1.756,1.756,0,0,1,.1-.627,1.431,1.431,0,0,1,.275-.462,1.165,1.165,0,0,1,.4-.286,1.151,1.151,0,0,1,.467-.1.9.9,0,0,1,.786.3,1.548,1.548,0,0,1,.215.9V10h1.254V6.667a1.893,1.893,0,0,1,.286-1.122,1.062,1.062,0,0,1,.924-.4,1.239,1.239,0,0,1,.572.11.719.719,0,0,1,.313.313,1.271,1.271,0,0,1,.126.484q.022.28.022.621V10h1.254V6.073a1.878,1.878,0,0,0-.5-1.474,2.054,2.054,0,0,0-1.4-.44,1.987,1.987,0,0,0-1.045.253,2.531,2.531,0,0,0-.737.693,1.306,1.306,0,0,0-.632-.715,2.06,2.06,0,0,0-.963-.231,2.321,2.321,0,0,0-.6.071,1.864,1.864,0,0,0-.467.193,1.68,1.68,0,0,0-.368.3,3.221,3.221,0,0,0-.308.385H31.8V4.313ZM44.946,8.735V5.809a1.4,1.4,0,0,0-.2-.765,1.584,1.584,0,0,0-.522-.511,2.345,2.345,0,0,0-.731-.286,3.9,3.9,0,0,0-.825-.088,4.814,4.814,0,0,0-.924.088,2.408,2.408,0,0,0-.808.308,1.824,1.824,0,0,0-.589.583,1.888,1.888,0,0,0-.264.913h1.254a.858.858,0,0,1,.385-.682,1.575,1.575,0,0,1,.869-.22,3.041,3.041,0,0,1,.4.028,1.236,1.236,0,0,1,.38.11.775.775,0,0,1,.286.237.642.642,0,0,1,.116.4.56.56,0,0,1-.138.412.834.834,0,0,1-.374.2,3.046,3.046,0,0,1-.545.094,6.435,6.435,0,0,0-.649.094q-.4.044-.786.127a2.285,2.285,0,0,0-.7.269,1.426,1.426,0,0,0-.506.517,1.689,1.689,0,0,0-.192.858,1.593,1.593,0,0,0,.16.731,1.476,1.476,0,0,0,.429.517,1.934,1.934,0,0,0,.622.308,2.576,2.576,0,0,0,.737.1,3.617,3.617,0,0,0,1.05-.165,2.218,2.218,0,0,0,.919-.528.767.767,0,0,0,.33.539,1.209,1.209,0,0,0,.638.154q.077,0,.187-.011t.22-.033q.11-.022.214-.049t.171-.05V9.142a.822.822,0,0,1-.176.022h-.132a.255.255,0,0,1-.236-.1A.665.665,0,0,1,44.946,8.735ZM43.692,7.151v.935a.849.849,0,0,1-.143.5,1.2,1.2,0,0,1-.358.335,1.5,1.5,0,0,1-.456.187,2.042,2.042,0,0,1-.451.055,2.322,2.322,0,0,1-.368-.033,1.35,1.35,0,0,1-.374-.115.879.879,0,0,1-.292-.226.526.526,0,0,1-.121-.352.94.94,0,0,1,.083-.413.724.724,0,0,1,.226-.275,1.16,1.16,0,0,1,.33-.165,2.681,2.681,0,0,1,.385-.094q.418-.077.836-.115A1.522,1.522,0,0,0,43.692,7.151ZM46.3,4.313V10h1.254V7.294a2.642,2.642,0,0,1,.121-.836,1.833,1.833,0,0,1,.33-.61,1.377,1.377,0,0,1,.489-.374,1.442,1.442,0,0,1,.6-.126,2.261,2.261,0,0,1,.27.016q.138.016.27.039V4.192l-.171-.022a2.72,2.72,0,0,0-.3-.011,1.5,1.5,0,0,0-.561.11,1.945,1.945,0,0,0-.5.292,2.091,2.091,0,0,0-.385.4,1.269,1.269,0,0,0-.215.451h-.022v-1.1Zm3.3,0v.935h.946V8.6a3.435,3.435,0,0,0,.071.627.949.949,0,0,0,.231.457,1.065,1.065,0,0,0,.473.275,2.776,2.776,0,0,0,.8.094,3.684,3.684,0,0,0,.407-.022l.407-.044V9.021a1.312,1.312,0,0,1-.264.038q-.132.005-.264.005a.893.893,0,0,1-.33-.049.368.368,0,0,1-.181-.149.589.589,0,0,1-.077-.242,3.028,3.028,0,0,1-.017-.341V5.248h1.133V4.313H51.8V2.608H50.545V4.313Z" transform="translate(7630 -21510)"/>
    <circle id="Ellipse_1205" data-name="Ellipse 1205" class="cls-5" cx="1.5" cy="1.5" r="1.5" transform="translate(7623 -21505)"/>
  </g>
</svg>
